<svg width="320" height="320" viewBox="0 0 320 320" fill="none" xmlns="http://www.w3.org/2000/svg">
<circle cx="160" cy="160" r="150" fill="#006045"/>
<path d="M127.04 152L109.88 126.2L94.76 152H71.48L98.48 109.16L70.88 67.76H94.76L111.68 93.2L126.56 67.76H149.84L123.08 110.24L150.92 152H127.04Z" fill="white"/>
<path d="M110.28 252.84C102.36 252.84 95.08 251 88.44 247.32C81.88 243.64 76.64 238.52 72.72 231.96C68.88 225.32 66.96 217.88 66.96 209.64C66.96 201.4 68.88 194 72.72 187.44C76.64 180.88 81.88 175.76 88.44 172.08C95.08 168.4 102.36 166.56 110.28 166.56C118.2 166.56 125.44 168.4 132 172.08C138.64 175.76 143.84 180.88 147.6 187.44C151.44 194 153.36 201.4 153.36 209.64C153.36 217.88 151.44 225.32 147.6 231.96C143.76 238.52 138.56 243.64 132 247.32C125.44 251 118.2 252.84 110.28 252.84ZM110.28 234.12C117 234.12 122.36 231.88 126.36 227.4C130.44 222.92 132.48 217 132.48 209.64C132.48 202.2 130.44 196.28 126.36 191.88C122.36 187.4 117 185.16 110.28 185.16C103.48 185.16 98.04 187.36 93.96 191.76C89.96 196.16 87.96 202.12 87.96 209.64C87.96 217.08 89.96 223.04 93.96 227.52C98.04 231.92 103.48 234.12 110.28 234.12Z" fill="white"/>
<path d="M209.28 152.84C201.36 152.84 194.08 151 187.44 147.32C180.88 143.64 175.64 138.52 171.72 131.96C167.88 125.32 165.96 117.88 165.96 109.64C165.96 101.4 167.88 94 171.72 87.44C175.64 80.88 180.88 75.76 187.44 72.08C194.08 68.4 201.36 66.56 209.28 66.56C217.2 66.56 224.44 68.4 231 72.08C237.64 75.76 242.84 80.88 246.6 87.44C250.44 94 252.36 101.4 252.36 109.64C252.36 117.88 250.44 125.32 246.6 131.96C242.76 138.52 237.56 143.64 231 147.32C224.44 151 217.2 152.84 209.28 152.84ZM209.28 134.12C216 134.12 221.36 131.88 225.36 127.4C229.44 122.92 231.48 117 231.48 109.64C231.48 102.2 229.44 96.28 225.36 91.88C221.36 87.4 216 85.16 209.28 85.16C202.48 85.16 197.04 87.36 192.96 91.76C188.96 96.16 186.96 102.12 186.96 109.64C186.96 117.08 188.96 123.04 192.96 127.52C197.04 131.92 202.48 134.12 209.28 134.12Z" fill="white"/>
<path d="M226.04 252L208.88 226.2L193.76 252H170.48L197.48 209.16L169.88 167.76H193.76L210.68 193.2L225.56 167.76H248.84L222.08 210.24L249.92 252H226.04Z" fill="white"/>
</svg>
